<?xml version="1.0" ?><svg enable-background="new 0 0 64 64" height="64px" version="1.1" viewBox="0 0 64 64" width="64px" xml:space="preserve" xmlns="http://www.w3.org/2000/svg" xmlns:xlink="http://www.w3.org/1999/xlink"><g id="Layer_1"><g><circle cx="31.833" cy="32" fill="#76C2AF" r="32"/></g><g><g><g opacity="0.2"><path d="M28,23v-9H15c-1.657,0-3,1.343-3,3v34c0,1.657,1.343,3,3,3h22c1.657,0,3-1.343,3-3V26h-9      C29.343,26,28,24.657,28,23z" fill="#231F20"/></g><g><path d="M37,12h-9H15c-1.657,0-3,1.343-3,3v25v9c0,1.657,1.343,3,3,3h9h13c1.657,0,3-1.343,3-3V24v-9      C40,13.343,38.657,12,37,12z" fill="#E0E0D1"/></g></g><g opacity="0.2"><rect fill="#231F20" height="2" width="10" x="16" y="19"/></g><g opacity="0.2"><rect fill="#231F20" height="2" width="20" x="16" y="35"/></g><g opacity="0.2"><rect fill="#231F20" height="2" width="20" x="16" y="30"/></g><g opacity="0.2"><rect fill="#231F20" height="2" width="20" x="16" y="25"/></g><g opacity="0.2"><rect fill="#231F20" height="2" width="20" x="16" y="40"/></g><g opacity="0.2"><rect fill="#231F20" height="2" width="20" x="16" y="45"/></g></g><g opacity="0.2"><path d="M55.121,21.864l-7.071-7.071c-1.172-1.172-3.071-1.172-4.243,0l-3.536,3.536l-0.707,0.707L23.302,35.299    l-1.886,9.428l-0.943,4.714l4.714-0.943l9.428-1.886l16.263-16.263l0.707-0.707l3.536-3.536    C56.293,24.935,56.293,23.036,55.121,21.864z" fill="#231F20"/></g><g><path d="M50.879,28.435c-1.172,1.172-3.071,1.172-4.243,0l-7.071-7.071c-1.172-1.172-1.172-3.071,0-4.243    l4.243-4.243c1.172-1.172,3.071-1.172,4.243,0l7.071,7.071c1.172,1.172,1.172,3.071,0,4.243L50.879,28.435z" fill="#C75C5C"/></g><g><rect fill="#E0995E" height="4" transform="matrix(0.7071 -0.7071 0.7071 0.7071 -8.8823 31.1838)" width="24" x="21.201" y="24.314"/></g><g><rect fill="#F5CF87" height="8" transform="matrix(0.7071 -0.7071 0.7071 0.7071 -11.3467 35.1335)" width="26" x="23.737" y="27.263"/></g><g><rect fill="#E0995E" height="4" transform="matrix(0.7071 -0.7071 0.7071 0.7071 -12.397 39.669)" width="24" x="29.686" y="32.799"/></g><g><g><polygon fill="#4F5D73" points="20.473,47.527 25.187,46.584 21.416,42.813    "/></g><g><polygon fill="#FFFFFF" points="23.302,33.385 21.416,42.813 25.187,46.584 34.615,44.698 33.201,43.284 33.201,40.456      27.544,40.456 27.544,34.799 24.716,34.799    "/></g></g></g><g id="Layer_2"/></svg>