<?xml version="1.0" encoding="utf-8"?>
<svg viewBox="0 0 64 64" width="64" height="64" style="enable-background:new 0 0 64 64;" xmlns="http://www.w3.org/2000/svg">
  <defs>
    <style type="text/css">
	.st0{fill:#62BEE7;}
	.st1{fill:#474E5E;}
	.st2{fill:#F3EEE4;}
	.st3{fill:#FFFFFF;}
	.st4{fill:#E8DCCA;}
	.st5{opacity:0.1;fill:#231F20;}
	.st6{fill:#506268;}
	.st7{fill:#EB5151;}
	.st8{fill:#C64444;}
	.st9{fill:#9CCB5B;}
	.st10{fill:#404A4C;}
	.st11{fill:#676767;}
	.st12{fill:#E0E1E5;}
	.st13{fill:#9D9EA0;}
	.st14{fill:#B3B4B7;}
	.st15{opacity:0.1;}
	.st16{fill:#231F20;}
	.st17{fill:#FACC20;}
	.st18{fill:#FDEF34;}
	.st19{fill:#F7A90B;}
	.st20{fill:#20B8EA;}
	.st21{fill:#00A8EA;}
	.st22{fill:#33D3F4;}
	.st23{opacity:0.25;fill:#FFFFFF;}
	.st24{fill:#CACBCE;}
	.st25{fill:#2E3545;}
	.st26{fill:#8DAF4A;}
	.st27{fill:#F9C2AF;}
	.st28{fill:#AFDDF4;}
	.st29{fill:#677177;}
	.st30{fill:#FFEDB3;}
	.st31{fill:#695652;}
	.st32{fill:#30A7BF;}
	.st33{fill:#4D5556;}
	.st34{opacity:0.35;}
	.st35{fill:#FFCB04;}
	.st36{fill:#99E9FA;}
	.st37{opacity:0.2;}
	.st38{opacity:3.000000e-02;}
	.st39{fill:#9ECA5B;}
	.st40{fill:#98BA56;}
	.st41{fill:#40EEFF;}
	.st42{fill:#FF6A52;}
	.st43{opacity:0.1;fill:#FFFFFF;}
	.st44{opacity:0.4;}
	.st45{fill:#57606D;}
	.st46{fill:#BACA5B;}
	.st47{opacity:0.25;}
	.st48{opacity:5.000000e-02;fill:#231F20;}
	.st49{opacity:0.2;fill:#FFFFFF;}
	.st50{opacity:0.3;}
	.st51{fill:#FFD82F;}
	.st52{fill:#F4C121;}
	.st53{fill:#EF9D0A;}
	.st54{fill:#F9E532;}
	.st55{fill:#F4C01E;}
	.st56{fill:#FFE14D;}
	.st57{fill:#B7C156;}
	.st58{fill:#DBA92C;}
	.st59{fill:#363D4D;}
	.st60{fill:#3F4656;}
	.st61{fill:#463E33;}
	.st62{fill:none;}
	.st63{opacity:4.000000e-02;}
	.st64{fill:#4DB6AC;}
	.st65{fill:#CADE49;}
	.st66{fill:#9FD343;}
	.st67{fill:#AAD643;}
	.st68{fill:#82C736;}
	.st69{opacity:0.3;fill:#FFFFFF;}
	.st70{fill:#FFD640;}
	.st71{opacity:0.5;}
	.st72{opacity:0.6;}
</style>
  </defs>
  <g>
    <g>
      <circle cx="32" cy="32" fill="#76C2AF" r="32"/>
    </g>
    <g>
      <g>
        <rect x="28.109" y="20.24" width="24.729" height="6.356" style="stroke-linecap: round; stroke-linejoin: round; paint-order: stroke markers; stroke: rgba(35, 31, 32, 0.43); fill: rgba(35, 31, 32, 0.22);"/>
        <path d="M 2.228 0.532 H 2.228 L 2.228 -1.423 L 6.019 2.188 L 2.228 5.798 L 2.228 3.843 H 2.228 V 0.532 Z" transform="matrix(-0.99971, 0.024089, -0.024089, -0.99971, 30.466982, 25.59774)" style="stroke-linecap: round; stroke-linejoin: round; stroke-width: 2px; paint-order: stroke markers; stroke: rgba(35, 31, 32, 0.43); fill: rgba(35, 31, 32, 0.22);"/>
      </g>
      <g>
        <rect x="28.474" y="19.331" width="24.729" height="6.356" style="fill: rgb(255, 255, 255); stroke-linecap: round; stroke-linejoin: round; stroke: rgb(255, 255, 255);"/>
        <path d="M 2.228 0.532 H 2.228 L 2.228 -1.423 L 6.019 2.188 L 2.228 5.798 L 2.228 3.843 H 2.228 V 0.532 Z" transform="matrix(-0.99971, 0.024089, -0.024089, -0.99971, 30.831743, 24.688972)" style="fill: rgb(255, 255, 255); stroke-linecap: round; stroke-linejoin: round; stroke-width: 2px; stroke: rgb(255, 255, 255);"/>
        <path d="M 32.121 23.988 C 32.161 24.128 32.214 24.231 32.281 24.298 C 32.188 24.398 32.058 24.448 31.891 24.448 C 31.791 24.448 31.704 24.428 31.631 24.388 C 31.558 24.341 31.511 24.278 31.491 24.198 L 31.271 23.358 L 30.141 23.358 L 29.981 23.998 C 29.954 24.085 29.941 24.158 29.941 24.218 C 29.941 24.285 29.961 24.338 30.001 24.378 C 29.934 24.405 29.874 24.421 29.821 24.428 C 29.774 24.441 29.714 24.448 29.641 24.448 C 29.514 24.448 29.421 24.428 29.361 24.388 C 29.301 24.341 29.271 24.268 29.271 24.168 C 29.271 24.088 29.291 23.975 29.331 23.828 L 30.321 20.908 C 30.508 20.848 30.691 20.818 30.871 20.818 C 31.071 20.818 31.188 20.888 31.221 21.028 L 32.121 23.988 Z M 30.231 22.998 L 31.181 22.998 L 30.701 21.208 L 30.231 22.998 ZM 33.076 24.448 C 32.969 24.448 32.879 24.411 32.806 24.338 C 32.733 24.271 32.696 24.185 32.696 24.078 C 32.696 23.971 32.733 23.885 32.806 23.818 C 32.873 23.745 32.963 23.708 33.076 23.708 C 33.176 23.708 33.259 23.745 33.326 23.818 C 33.399 23.885 33.436 23.971 33.436 24.078 C 33.436 24.185 33.399 24.271 33.326 24.338 C 33.259 24.411 33.176 24.448 33.076 24.448 Z" transform="matrix(1, 0, 0, 1, 0, 0)" style="fill: rgb(79, 93, 115); white-space: pre;"/>
      </g>
    </g>
    <g transform="matrix(1, 0, 0, 1, 0.300612, 12.01301)">
      <g>
        <rect x="28.109" y="20.24" width="24.729" height="6.356" style="stroke-linecap: round; stroke-linejoin: round; paint-order: stroke markers; stroke: rgba(35, 31, 32, 0.43); fill: rgba(35, 31, 32, 0.22);"/>
        <path d="M 2.228 0.532 H 2.228 L 2.228 -1.423 L 6.019 2.188 L 2.228 5.798 L 2.228 3.843 H 2.228 V 0.532 Z" transform="matrix(-0.99971, 0.024089, -0.024089, -0.99971, 30.466982, 25.59774)" style="stroke-linecap: round; stroke-linejoin: round; stroke-width: 2px; paint-order: stroke markers; stroke: rgba(35, 31, 32, 0.43); fill: rgba(35, 31, 32, 0.22);"/>
      </g>
      <g>
        <rect x="28.474" y="19.331" width="24.729" height="6.356" style="fill: rgb(255, 255, 255); stroke-linecap: round; stroke-linejoin: round; stroke: rgb(255, 255, 255);"/>
        <path d="M 2.228 0.532 H 2.228 L 2.228 -1.423 L 6.019 2.188 L 2.228 5.798 L 2.228 3.843 H 2.228 V 0.532 Z" transform="matrix(-0.99971, 0.024089, -0.024089, -0.99971, 30.831743, 24.688972)" style="fill: rgb(255, 255, 255); stroke-linecap: round; stroke-linejoin: round; stroke-width: 2px; stroke: rgb(255, 255, 255);"/>
        <path d="M 31.161 22.498 C 31.408 22.538 31.601 22.635 31.741 22.788 C 31.888 22.941 31.961 23.145 31.961 23.398 C 31.961 23.725 31.838 23.971 31.591 24.138 C 31.344 24.298 30.991 24.378 30.531 24.378 L 29.981 24.378 C 29.874 24.378 29.784 24.348 29.711 24.288 C 29.638 24.228 29.601 24.145 29.601 24.038 L 29.601 21.608 C 29.601 21.348 29.571 21.135 29.511 20.968 C 29.718 20.868 30.021 20.818 30.421 20.818 C 30.868 20.818 31.208 20.888 31.441 21.028 C 31.674 21.155 31.791 21.368 31.791 21.668 C 31.791 21.868 31.734 22.045 31.621 22.198 C 31.508 22.345 31.354 22.445 31.161 22.498 Z M 30.431 21.048 L 30.261 21.048 L 30.261 22.408 L 30.521 22.408 C 30.714 22.415 30.858 22.355 30.951 22.228 C 31.051 22.108 31.101 21.938 31.101 21.718 C 31.101 21.505 31.048 21.341 30.941 21.228 C 30.834 21.108 30.664 21.048 30.431 21.048 Z M 30.511 24.148 C 30.764 24.148 30.951 24.081 31.071 23.948 C 31.184 23.815 31.241 23.635 31.241 23.408 C 31.241 23.121 31.181 22.921 31.061 22.808 C 30.934 22.695 30.754 22.638 30.521 22.638 L 30.261 22.638 L 30.261 24.148 L 30.511 24.148 ZM 32.961 24.448 C 32.854 24.448 32.764 24.411 32.691 24.338 C 32.618 24.271 32.581 24.185 32.581 24.078 C 32.581 23.971 32.618 23.885 32.691 23.818 C 32.758 23.745 32.848 23.708 32.961 23.708 C 33.061 23.708 33.144 23.745 33.211 23.818 C 33.284 23.885 33.321 23.971 33.321 24.078 C 33.321 24.185 33.284 24.271 33.211 24.338 C 33.144 24.411 33.061 24.448 32.961 24.448 Z" transform="matrix(1, 0, 0, 1, 0, 0)" style="fill: rgb(79, 93, 115); white-space: pre;"/>
      </g>
    </g>
    <g transform="matrix(1, 0, 0, 1, -0.002789, 22.487841)">
      <g>
        <rect x="28.109" y="20.24" width="24.729" height="6.356" style="stroke-linecap: round; stroke-linejoin: round; paint-order: stroke markers; stroke: rgba(35, 31, 32, 0.43); fill: rgba(35, 31, 32, 0.22);"/>
        <path d="M 2.228 0.532 H 2.228 L 2.228 -1.423 L 6.019 2.188 L 2.228 5.798 L 2.228 3.843 H 2.228 V 0.532 Z" transform="matrix(-0.99971, 0.024089, -0.024089, -0.99971, 30.466982, 25.59774)" style="stroke-linecap: round; stroke-linejoin: round; stroke-width: 2px; paint-order: stroke markers; stroke: rgba(35, 31, 32, 0.43); fill: rgba(35, 31, 32, 0.22);"/>
      </g>
      <g>
        <rect x="28.474" y="19.331" width="24.729" height="6.356" style="fill: rgb(255, 255, 255); stroke-linecap: round; stroke-linejoin: round; stroke: rgb(255, 255, 255);"/>
        <path d="M 2.228 0.532 H 2.228 L 2.228 -1.423 L 6.019 2.188 L 2.228 5.798 L 2.228 3.843 H 2.228 V 0.532 Z" transform="matrix(-0.99971, 0.024089, -0.024089, -0.99971, 30.831743, 24.688972)" style="fill: rgb(255, 255, 255); stroke-linecap: round; stroke-linejoin: round; stroke-width: 2px; stroke: rgb(255, 255, 255);"/>
        <path d="M 30.831 24.448 C 30.384 24.448 30.038 24.288 29.791 23.968 C 29.544 23.655 29.421 23.208 29.421 22.628 C 29.421 22.055 29.551 21.611 29.811 21.298 C 30.064 20.978 30.418 20.818 30.871 20.818 C 31.058 20.818 31.238 20.845 31.411 20.898 C 31.578 20.938 31.714 21.005 31.821 21.098 C 31.934 21.185 31.991 21.291 31.991 21.418 C 31.991 21.518 31.944 21.605 31.851 21.678 C 31.751 21.758 31.621 21.795 31.461 21.788 C 31.414 21.295 31.221 21.048 30.881 21.048 C 30.628 21.048 30.444 21.178 30.331 21.438 C 30.204 21.705 30.141 22.101 30.141 22.628 C 30.141 23.161 30.201 23.561 30.321 23.828 C 30.434 24.088 30.618 24.218 30.871 24.218 C 31.051 24.218 31.198 24.151 31.311 24.018 C 31.418 23.885 31.491 23.685 31.531 23.418 C 31.578 23.411 31.611 23.408 31.631 23.408 C 31.751 23.408 31.854 23.438 31.941 23.498 C 32.034 23.558 32.081 23.638 32.081 23.738 C 32.081 23.885 32.018 24.011 31.891 24.118 C 31.778 24.225 31.624 24.308 31.431 24.368 C 31.238 24.421 31.038 24.448 30.831 24.448 ZM 33.041 24.448 C 32.934 24.448 32.844 24.411 32.771 24.338 C 32.698 24.271 32.661 24.185 32.661 24.078 C 32.661 23.971 32.698 23.885 32.771 23.818 C 32.838 23.745 32.928 23.708 33.041 23.708 C 33.141 23.708 33.224 23.745 33.291 23.818 C 33.364 23.885 33.401 23.971 33.401 24.078 C 33.401 24.185 33.364 24.271 33.291 24.338 C 33.224 24.411 33.141 24.448 33.041 24.448 Z" transform="matrix(1, 0, 0, 1, 0, 0)" style="fill: rgb(79, 93, 115); white-space: pre;"/>
      </g>
    </g>
    <path d="M 9.176 26.442 C 9.176 26.369 9.216 26.295 9.296 26.222 C 9.383 26.149 9.469 26.112 9.556 26.112 C 9.656 26.112 9.739 26.155 9.806 26.242 C 9.873 26.322 9.906 26.405 9.906 26.492 C 9.906 26.572 9.863 26.645 9.776 26.712 C 9.696 26.785 9.606 26.822 9.506 26.822 C 9.419 26.822 9.343 26.779 9.276 26.692 C 9.209 26.612 9.176 26.529 9.176 26.442 Z M 9.576 25.762 C 9.509 25.762 9.453 25.752 9.406 25.732 C 9.266 25.505 9.196 25.305 9.196 25.132 C 9.196 25.005 9.229 24.879 9.296 24.752 C 9.363 24.625 9.443 24.512 9.536 24.412 C 9.629 24.305 9.726 24.199 9.826 24.092 C 9.919 23.985 9.996 23.872 10.056 23.752 C 10.123 23.632 10.156 23.512 10.156 23.392 C 10.156 23.212 10.109 23.075 10.016 22.982 C 9.923 22.889 9.796 22.842 9.636 22.842 C 9.436 22.842 9.276 22.889 9.156 22.982 C 9.129 23.255 9.086 23.482 9.026 23.662 C 8.966 23.689 8.899 23.689 8.826 23.662 C 8.779 23.455 8.753 23.302 8.746 23.202 C 8.739 23.102 8.743 22.995 8.756 22.882 C 9.063 22.722 9.389 22.642 9.736 22.642 C 10.016 22.642 10.249 22.709 10.436 22.842 C 10.623 22.975 10.716 23.155 10.716 23.382 C 10.716 23.555 10.679 23.705 10.606 23.832 C 10.526 23.965 10.433 24.082 10.326 24.182 C 10.213 24.282 10.093 24.385 9.966 24.492 C 9.846 24.599 9.749 24.715 9.676 24.842 C 9.596 24.969 9.556 25.115 9.556 25.282 C 9.556 25.382 9.586 25.529 9.646 25.722 C 9.639 25.749 9.616 25.762 9.576 25.762 Z" transform="matrix(4.704070091247559, 0, 0, 3.9616539478302, -31.25308609008789, -66.51985168457031)" style="fill: rgb(79, 93, 115); line-height: 9.28905px; white-space: pre;"/>
    <path d="M 9.176 26.442 C 9.176 26.369 9.216 26.295 9.296 26.222 C 9.383 26.149 9.469 26.112 9.556 26.112 C 9.656 26.112 9.739 26.155 9.806 26.242 C 9.873 26.322 9.906 26.405 9.906 26.492 C 9.906 26.572 9.863 26.645 9.776 26.712 C 9.696 26.785 9.606 26.822 9.506 26.822 C 9.419 26.822 9.343 26.779 9.276 26.692 C 9.209 26.612 9.176 26.529 9.176 26.442 Z M 9.576 25.762 C 9.509 25.762 9.453 25.752 9.406 25.732 C 9.266 25.505 9.196 25.305 9.196 25.132 C 9.196 25.005 9.229 24.879 9.296 24.752 C 9.363 24.625 9.443 24.512 9.536 24.412 C 9.629 24.305 9.726 24.199 9.826 24.092 C 9.919 23.985 9.996 23.872 10.056 23.752 C 10.123 23.632 10.156 23.512 10.156 23.392 C 10.156 23.212 10.109 23.075 10.016 22.982 C 9.923 22.889 9.796 22.842 9.636 22.842 C 9.436 22.842 9.276 22.889 9.156 22.982 C 9.129 23.255 9.086 23.482 9.026 23.662 C 8.966 23.689 8.899 23.689 8.826 23.662 C 8.779 23.455 8.753 23.302 8.746 23.202 C 8.739 23.102 8.743 22.995 8.756 22.882 C 9.063 22.722 9.389 22.642 9.736 22.642 C 10.016 22.642 10.249 22.709 10.436 22.842 C 10.623 22.975 10.716 23.155 10.716 23.382 C 10.716 23.555 10.679 23.705 10.606 23.832 C 10.526 23.965 10.433 24.082 10.326 24.182 C 10.213 24.282 10.093 24.385 9.966 24.492 C 9.846 24.599 9.749 24.715 9.676 24.842 C 9.596 24.969 9.556 25.115 9.556 25.282 C 9.556 25.382 9.586 25.529 9.646 25.722 C 9.639 25.749 9.616 25.762 9.576 25.762 Z" transform="matrix(4.704070091247559, 0, 0, 3.9616539478302, -30.329862594604492, -65.64415740966797)" style="fill: rgba(83, 97, 118, 0.49); line-height: 9.28905px; white-space: pre;"/>
  </g>
</svg>