<?xml version="1.0" ?><svg viewBox="0 0 128 128" xmlns="http://www.w3.org/2000/svg"><defs><style>.cls-1{fill:#66b8e2;}.cls-2{fill:#0088ce;}</style></defs><title/><g data-name="Layer 5" id="Layer_5"><path class="cls-1" d="M37.27,86.13h0A9.26,9.26,0,0,1,28,77.51l-.27-3.92A9.26,9.26,0,0,1,37,63.7h.54a9.26,9.26,0,0,1,9.24,9.9l-.27,3.92A9.26,9.26,0,0,1,37.27,86.13Z"/><path class="cls-2" d="M49.75,71.82v0A12.27,12.27,0,0,0,37.54,60.7H37A12.25,12.25,0,0,0,24.77,73.79L25,77.71A12.28,12.28,0,0,0,37.27,89.13a11.17,11.17,0,0,0,1.54-.1,12.1,12.1,0,0,0,5.13-1.89,12.37,12.37,0,0,0,4.72-5.74,12.19,12.19,0,0,0,.84-3.69l.27-3.91A11.89,11.89,0,0,0,49.75,71.82Zm-6,1.57-.27,3.91A6.26,6.26,0,0,1,31,77.3l-.26-3.91A6.25,6.25,0,0,1,37,66.7h.54a6.26,6.26,0,0,1,6.24,6.69Z"/><path class="cls-1" d="M55.57,108.55H19s-.19-12.93,3.51-16c2.51-2.12,9.42-3,16.07-2.77a50.69,50.69,0,0,1,6.24.54,13.64,13.64,0,0,0-1.08,2.84,57.23,57.23,0,0,0-1.63,12.44H55.6C55.63,107.33,55.57,108.55,55.57,108.55Z"/><path class="cls-2" d="M58.62,105.55H22c.23-4.75,1.12-9.68,2.39-10.75,1.67-1.41,6.85-2.11,12.21-2.11h1a55.52,55.52,0,0,1,6.08.41,13.64,13.64,0,0,1,1.08-2.84,4.37,4.37,0,0,1,1-1.28,7.34,7.34,0,0,1,2.16-1.17c-1.23-.27-2.57-.5-4-.68s-2.65-.28-4-.36a57.48,57.48,0,0,0-9.5.25c-4.25.49-7.93,1.53-9.89,3.18-4.44,3.75-4.62,15-4.57,18.38l0,3H58.43l.14-2.86c0-.62.06-1.49.06-2.54C58.63,106,58.63,105.76,58.62,105.55Z"/><path class="cls-1" d="M90.71,86.13h0a9.26,9.26,0,0,1-9.24-8.62l-.27-3.92a9.26,9.26,0,0,1,9.24-9.9H91a9.26,9.26,0,0,1,9.24,9.9l-.27,3.92A9.26,9.26,0,0,1,90.71,86.13Z"/><path class="cls-2" d="M99.94,64.59a12.32,12.32,0,0,0-9-3.89h-.54a12.28,12.28,0,0,0-12.2,11,12,12,0,0,0,0,2.08l.27,3.91A12.24,12.24,0,0,0,83.86,87a12.22,12.22,0,0,0,5.58,2,10.7,10.7,0,0,0,1.27.07,12.3,12.3,0,0,0,12.23-11.42l.27-3.91A12.32,12.32,0,0,0,99.94,64.59ZM85.86,68.68a6.2,6.2,0,0,1,4.58-2H91a6.26,6.26,0,0,1,6.24,6.69L97,77.3a6.26,6.26,0,0,1-12.49,0l-.27-3.91A6.26,6.26,0,0,1,85.86,68.68Z"/><path class="cls-1" d="M109,108.55H72.39s0-1.22.07-3H86A48.45,48.45,0,0,0,84.53,93a11.15,11.15,0,0,0-1.22-2.85,49.81,49.81,0,0,1,6.39-.42c6.41,0,13.07,1,15.8,2.81C109.66,95.34,109,108.55,109,108.55Z"/><path class="cls-2" d="M107.19,90c-2-1.37-5.63-2.35-9.81-2.88a60.45,60.45,0,0,0-9.19-.42c-1.48,0-2.94.15-4.33.31a34.48,34.48,0,0,0-4.45.78,11.64,11.64,0,0,1,3,1.36,3.33,3.33,0,0,1,.87.94A11.15,11.15,0,0,1,84.53,93,53.57,53.57,0,0,1,90,92.69h.59c5.47,0,11,.82,13.17,2.28,1.22.83,2.15,5.5,2.24,10.57H69.43c0,1.27,0,2.33,0,3l0,3h42.42l.14-2.86c0-.63.06-1.53.06-2.6C112.06,101.25,111.41,92.9,107.19,90Z"/><path class="cls-2" d="M75.76,49.41a15.66,15.66,0,0,0-11.41-5h-.74A15.61,15.61,0,0,0,48,61.14l.36,5.33c0,.34.06.68.11,1a15.28,15.28,0,0,0,1.24,4.31v0a15.77,15.77,0,0,0,8.8,8.2,15.39,15.39,0,0,0,10.59.1,15.66,15.66,0,0,0,9.1-8.4,15.25,15.25,0,0,0,1.19-4.15c.06-.36.09-.73.12-1.1l.37-5.33A15.66,15.66,0,0,0,75.76,49.41ZM73.94,60.73l-.37,5.33a9.61,9.61,0,0,1-19.18,0L54,60.73a9.62,9.62,0,0,1,9.59-10.28h.74a9.63,9.63,0,0,1,9.59,10.28Z"/><path class="cls-2" d="M90.64,92.7a24.61,24.61,0,0,0-.94-3l-.26-.63a14.07,14.07,0,0,0-1.25-2.34,8.18,8.18,0,0,0-1-1.27,7.45,7.45,0,0,0-1.4-1.24,12.73,12.73,0,0,0-1.89-1,27.53,27.53,0,0,0-4.5-1.5,62.57,62.57,0,0,0-10.29-1.55A81.39,81.39,0,0,0,58.55,80a55.49,55.49,0,0,0-9.89,1.38,24.57,24.57,0,0,0-4.38,1.51,10.82,10.82,0,0,0-2.4,1.49,7,7,0,0,0-1,1,9.62,9.62,0,0,0-1,1.39A15.2,15.2,0,0,0,38.81,89c-.1.23-.19.46-.27.7a26.4,26.4,0,0,0-.92,3,62.64,62.64,0,0,0-1.56,12.85c0,1.34,0,2.39,0,3v0l0,3H91.77l.14-2.86a.71.71,0,0,1,0-.14c0-.64.06-1.68.06-3A54.69,54.69,0,0,0,90.64,92.7ZM42.07,105.55A57.23,57.23,0,0,1,43.7,93.11a13.64,13.64,0,0,1,1.08-2.84,4.37,4.37,0,0,1,1-1.28,7.34,7.34,0,0,1,2.16-1.17c3.41-1.3,9.28-1.94,15.29-1.94s12.2.65,16.21,1.93a11.64,11.64,0,0,1,3,1.36,3.33,3.33,0,0,1,.87.94A11.15,11.15,0,0,1,84.53,93,48.45,48.45,0,0,1,86,105.55Z"/></g></svg>