<?xml version="1.0" ?><svg id="Layer_1" style="enable-background:new 0 0 512 512;" version="1.1" viewBox="0 0 512 512" xml:space="preserve" xmlns="http://www.w3.org/2000/svg" xmlns:xlink="http://www.w3.org/1999/xlink"><style type="text/css">
	.st0{fill:#084272;}
	.st1{fill:#FFFFFF;}
	.st2{fill:#2B66A1;}
	.st3{fill:#3DA7E3;}
	.st4{fill:#24323D;}
</style><g><g><path class="st0" d="M432.7,505.8H81.2c-4.9,0-9-4-9-9V14.7c0-4.9,4-9,9-9h351.5c4.9,0,9,4,9,9v482.1    C441.7,501.8,437.7,505.8,432.7,505.8z"/><rect class="st1" height="471.2" width="340.7" x="86.6" y="20.1"/><g><g id="XMLID_128_"><g id="XMLID_143_"><rect class="st0" height="11.2" id="XMLID_144_" width="244.2" x="134.9" y="86"/></g><g id="XMLID_141_"><rect class="st0" height="11.2" id="XMLID_142_" width="244.2" x="134.9" y="109.1"/></g><g id="XMLID_139_"><rect class="st0" height="11.2" id="XMLID_140_" width="244.2" x="134.9" y="132.3"/></g><g id="XMLID_137_"><rect class="st0" height="11.2" id="XMLID_138_" width="244.2" x="134.9" y="155.4"/></g><g id="XMLID_135_"><rect class="st0" height="11.2" id="XMLID_136_" width="244.2" x="134.9" y="178.6"/></g><g id="XMLID_133_"><rect class="st0" height="11.2" id="XMLID_134_" width="244.2" x="134.9" y="201.7"/></g><g id="XMLID_131_"><rect class="st0" height="11.2" id="XMLID_132_" width="244.2" x="134.9" y="224.8"/></g><g id="XMLID_129_"><rect class="st0" height="11.2" id="XMLID_130_" width="180.4" x="134.9" y="248"/></g></g></g><polygon class="st2" points="275,155.7 275,5.8 398.4,5.8 398.4,155.7 336.7,119.5   "/><polygon class="st0" points="357,321.2 86.6,321.2 86.6,447.3 357,447.3 314.2,384.3   "/><polygon class="st3" points="333.4,333.5 86.6,333.5 86.6,435.1 333.4,435.1 299,384.3   "/><polygon class="st4" points="259.1,20.1 275,20.1 275,5.8   "/></g><g id="XMLID_786_"><g id="XMLID_39_"><path class="st1" d="M179.6,352.7h10.5v44.2c0,6.1-1.8,10.9-5.5,14.5c-3.7,3.6-8.5,5.4-14.3,5.4     c-6.2,0-11.2-1.6-14.8-4.8c-3.6-3.2-5.4-7.8-5.3-13.9l0.1-0.3h10.2c0,3.6,0.9,6.2,2.6,8c1.7,1.7,4.1,2.6,7.2,2.6     c2.7,0,5-1,6.7-3.1c1.7-2.1,2.6-4.9,2.6-8.3V352.7z" id="XMLID_42_"/><path class="st1" d="M239.3,399.7c0-2.6-0.9-4.8-2.8-6.5c-1.9-1.7-5.2-3.2-9.9-4.5c-6.8-1.9-12-4.3-15.7-7.4     c-3.7-3.1-5.5-7-5.5-12c0-5.1,2-9.3,6.1-12.6c4-3.3,9.3-4.9,15.6-4.9c6.8,0,12.3,1.8,16.4,5.5c4.1,3.7,6.1,8.2,5.9,13.6l-0.1,0.3     H239c0-3.3-1.1-6-3.3-7.9c-2.2-2-5.2-3-8.8-3c-3.6,0-6.3,0.8-8.2,2.5c-1.9,1.7-2.9,3.8-2.9,6.5c0,2.4,1.1,4.4,3.2,6     c2.1,1.6,5.6,3.1,10.5,4.5c6.6,1.9,11.7,4.4,15.1,7.6c3.5,3.2,5.2,7.3,5.2,12.3c0,5.2-2.1,9.4-6.2,12.5     c-4.1,3.1-9.5,4.7-16.2,4.7c-6.4,0-12-1.7-16.8-5.1c-4.8-3.4-7.1-8.2-6.9-14.4l0.1-0.3H214c0,3.8,1.3,6.6,3.9,8.6     c2.6,1.9,5.8,2.9,9.6,2.9c3.7,0,6.6-0.8,8.7-2.4C238.2,404.5,239.3,402.4,239.3,399.7z" id="XMLID_40_"/></g></g></g></svg>