<?xml version="1.0" ?><svg viewBox="0 0 32 32" xmlns="http://www.w3.org/2000/svg"><title/><g id="fix"><path d="M26.5,32A5.51,5.51,0,0,1,21,26.5c0-.27,0-.57,0-.79L7.74,12.48A6,6,0,0,1,.48,5.12a1,1,0,0,1,.7-.71,1,1,0,0,1,1,.26L4,6.55A1.48,1.48,0,0,0,5.27,7a1.51,1.51,0,0,0,1.11-.73A1.62,1.62,0,0,0,6,4.32L4.26,2.55a1,1,0,0,1-.26-1A1,1,0,0,1,4.71.87,6,6,0,0,1,12,8.29L25,21.22A5.66,5.66,0,0,1,26.5,21a5.5,5.5,0,0,1,0,11ZM8,10.35a1,1,0,0,1,.71.29l13.9,13.9a1,1,0,0,1,.28.59A11.39,11.39,0,0,1,23,26.5,3.5,3.5,0,1,0,26.5,23a3.41,3.41,0,0,0-1.39.3A1,1,0,0,1,24,23.09L10.17,9.27A1,1,0,0,1,10,8.18,4,4,0,0,0,7.36,2.82l.09.08a3.62,3.62,0,0,1,.63,4.39A3.5,3.5,0,0,1,2.61,8l-.2-.21A4,4,0,0,0,4.07,10a4,4,0,0,0,3.6.39A1,1,0,0,1,8,10.35Z"/><path d="M27.37,29H25.63a1,1,0,0,1-.87-.5L23.9,27a1,1,0,0,1,0-1l.86-1.5a1,1,0,0,1,.87-.5h1.74a1,1,0,0,1,.87.5L29.1,26a1,1,0,0,1,0,1l-.86,1.5A1,1,0,0,1,27.37,29Zm-1.16-2h.58l.29-.5-.29-.5h-.58l-.29.5Z"/><path d="M21.9,15.13a1,1,0,0,1-.71-.29l-3.53-3.53a1,1,0,0,1,0-1.42l8-8a3.47,3.47,0,0,1,2.47-1h0a3.45,3.45,0,0,1,2.48,1,3.41,3.41,0,0,1,1,2.46,3.52,3.52,0,0,1-1,2.48l-8,8A1,1,0,0,1,21.9,15.13ZM19.78,10.6l2.12,2.12,7.25-7.26a1.49,1.49,0,0,0-1.06-2.55h0A1.47,1.47,0,0,0,27,3.34Z"/><path d="M12.65,23.35a1,1,0,0,1-.71-.29L9.28,20.39a1,1,0,0,1,0-1.42l3.18-3.18a1,1,0,0,1,1.42,0l2.67,2.66a1,1,0,0,1,.29.71,1.06,1.06,0,0,1-.29.72l-3.19,3.18A1,1,0,0,1,12.65,23.35ZM11.4,19.68l1.25,1.26,1.78-1.77-1.26-1.26Z"/><path d="M18.66,17.34h0a1,1,0,0,1-.71-.29l-2.66-2.67a1,1,0,0,1,0-1.42l2.18-2.18a1,1,0,0,1,1.42,0l2.67,2.66a1,1,0,0,1,.29.71,1.05,1.05,0,0,1-.29.71l-2.19,2.19A1,1,0,0,1,18.66,17.34Zm-1.25-3.67,1.25,1.25.77-.77L18.18,12.9Z"/><path d="M3,32a1,1,0,0,1-.71-.29l-2-2a1,1,0,0,1-.12-1.26l4-5.95a.87.87,0,0,1,.34-.32L9,19.65a1,1,0,0,1,1.2.16l2,2a1,1,0,0,1,.16,1.2L9.81,27.55a.87.87,0,0,1-.32.34L3.54,31.84A.94.94,0,0,1,3,32Zm-.71-3.13.84.84,5.07-3.36,2.05-3.67-.93-.93-3.67,2Z"/></g></svg>