<?xml version="1.0" encoding="utf-8"?>
<svg viewBox="0 0 64 64" xmlns="http://www.w3.org/2000/svg">
  <g id="Layer_1">
    <g>
      <circle cx="32" cy="32" fill="#E0995E" r="32"/>
    </g>
    <g opacity="0.2">
      <g>
        <polygon fill="#231F20" points="48,26 48,18 16,18 16,26 16,50 48,50    "/>
      </g>
      <g>
        <path d="M48,14H16c-2.209,0-4,1.791-4,4v8v24c0,2.209,1.791,4,4,4h32c2.209,0,4-1.791,4-4V26v-8     C52,15.791,50.209,14,48,14z" fill="#231F20"/>
      </g>
    </g>
    <g>
      <g>
        <path d="M16,50c-1.103,0-2-0.897-2-2V16c0-1.103,0.897-2,2-2h32c1.103,0,2,0.897,2,2v32c0,1.103-0.897,2-2,2H16z" fill="#77B3D4"/>
      </g>
      <g>
        <path d="M48,16v8v24H16V24v-8H48 M48,12H16c-2.209,0-4,1.791-4,4v8v24c0,2.209,1.791,4,4,4h32     c2.209,0,4-1.791,4-4V24v-8C52,13.791,50.209,12,48,12L48,12z" fill="#FFFFFF"/>
      </g>
    </g>
    <g>
      <rect fill="#FFFFFF" height="4" width="32" x="16" y="44"/>
    </g>
    <g>
      <g>
        <path d="M13.99,44h34.896v-2.921c0,0-1.706-2.977-3.286-4.843c-1.176-1.388-2.932-1.78-4.464-0.076l-2.752,2.643     l-5.999-7.629c-2.234-2.841-5.89-2.841-8.124,0L13.99,44z" fill="#4F5D73"/>
      </g>
    </g>
    <g>
      <circle cx="40" cy="24" fill="#F5CF87" r="3"/>
    </g>
    <g>
      <path d="M48,16v8v24H16V24v-8H48 M48,12H16c-2.209,0-4,1.791-4,4v8v24c0,2.209,1.791,4,4,4h32c2.209,0,4-1.791,4-4    V24v-8C52,13.791,50.209,12,48,12L48,12z" fill="#FFFFFF"/>
    </g>
  </g>
  <g id="Layer_2"/>
  <g id="Icons" transform="matrix(0.999972, 0.007534, 0.028066, 1.000242, 15.651905, 3.859046)" style="">
    <g>
      <ellipse cx="23.99998" cy="34.73875" rx="2.93345" ry="0.9429" style="fill:#F43734;"/>
      <g>
        <path d="M24.00505,12.31835c-3.7701,0-6.81,3.05-6.81,6.81c0,0.14,0.01,0.28,0.0199,0.42     c0.03,0.56,0.13,1.12,0.31,1.66c0.1701,0.53,0.4,1.03,0.71,1.5c0.0201,0.03,0.2101,0.3,0.5,0.74c0,0,0,0,0.01,0.01     c1.3,1.96,4.73,7.09,4.75,7.12c0.24,0.36,0.7701,0.36,1.0101,0c0.01-0.02,0.0299-0.04,0.0399-0.05     c0.07-0.11,5.11-7.66,5.2701-7.89c0.0399-0.07,0.0899-0.14,0.13-0.21c0.2699-0.46,0.4699-0.95,0.6099-1.46     c0.17-0.6,0.25-1.22,0.25-1.84C30.80495,15.36835,27.75505,12.31835,24.00505,12.31835z M24.17495,22.57835     c-1.5,0.09-2.7899-1.05-2.89-2.55c-0.0899-1.5,1.0501-2.79,2.5401-2.88c1.5-0.1,2.8,1.04,2.8899,2.54     C26.80495,21.18835,25.67495,22.47835,24.17495,22.57835z" style="fill:#F43734;"/>
        <path d="M18.55295,16.72375c0,0,1.5527-3.7647,5.447-3.4889c0,0,1.1516-0.0063,1.1512,0.5481     c-0.0004,0.6544-1.1512,0.4563-1.1512,0.4563S20.60845,13.82745,18.55295,16.72375z" style="fill:#FC6060;"/>
      </g>
    </g>
  </g>
</svg>