<?xml version="1.0" ?><!DOCTYPE svg  PUBLIC '-//W3C//DTD SVG 1.1//EN'  'http://www.w3.org/Graphics/SVG/1.1/DTD/svg11.dtd'><svg height="512px" id="Layer_1" style="enable-background:new 0 0 512 512;" version="1.1" viewBox="0 0 512 512" width="512px" xml:space="preserve" xmlns="http://www.w3.org/2000/svg" xmlns:xlink="http://www.w3.org/1999/xlink"><g id="Layer_1_1_"><circle cx="256.001" cy="265.997" r="243" style="fill:#125E6E;"/></g><g id="Layer_2"><g id="Favorite"/><g><path d="M307.909,503.451c-16.73,3.63-34.09,5.55-51.91,5.55c-18.47,0-36.45-2.06-53.74-5.96l10.17-51.16h85.23L307.909,503.451z"/><path d="M497.695,158.825v303.187c0,4.999-4.053,9.052-9.04,9.052H23.354c-4.999,0-9.052-4.053-9.052-9.052    V158.825c0-4.999,4.053-9.04,9.052-9.04h465.301C493.643,149.785,497.695,153.826,497.695,158.825z" style="fill:#4D4D4D;"/><path d="M497.695,460.738v1.274c0,4.999-4.053,9.052-9.04,9.052    H23.354c-4.999,0-9.052-4.053-9.052-9.052v-1.274H497.695z" style="adobe-blending-mode:multiply;enable-background:new    ;"/><path d="M265.137,160.052c0,3.597-2.916,6.513-6.513,6.513h-5.247c-3.597,0-6.513-2.916-6.513-6.513l0,0    c0-3.597,2.916-6.513,6.513-6.513h5.247C262.221,153.539,265.137,156.455,265.137,160.052L265.137,160.052z" style="fill:#808080;"/><g><g><defs><path d="M474.944,179.441v261.955c0,4.32-3.665,7.814-8.191,7.814H45.244c-4.514,0-8.191-3.495-8.191-7.814       V179.441c0-4.32,3.677-7.815,8.191-7.815h421.509c1.165,0,2.257,0.231,3.264,0.655       C472.917,173.471,474.944,176.238,474.944,179.441z" id="SVGID_1_"/></defs><clipPath id="SVGID_2_"><use style="overflow:visible;" xlink:href="#SVGID_1_"/></clipPath><path d="M474.944,179.441v261.955c0,4.32-3.665,7.814-8.191,7.814H45.244      c-4.514,0-8.191-3.495-8.191-7.814V179.441c0-4.32,3.677-7.815,8.191-7.815h421.509c1.165,0,2.257,0.231,3.264,0.655      C472.917,173.471,474.944,176.238,474.944,179.441z" style="clip-path:url(#SVGID_2_);fill:#ABC8E9;"/></g><g><defs><path d="M474.944,179.441v261.955c0,4.32-3.665,7.814-8.191,7.814H45.244c-4.514,0-8.191-3.495-8.191-7.814       V179.441c0-4.32,3.677-7.815,8.191-7.815h421.509c1.165,0,2.257,0.231,3.264,0.655       C472.917,173.471,474.944,176.238,474.944,179.441z" id="SVGID_3_"/></defs><clipPath id="SVGID_4_"><use style="overflow:visible;" xlink:href="#SVGID_3_"/></clipPath><path d="M279.369,476.795c0,2.741-0.818,4.964-1.827,4.964h-44.926      c-1.009,0-1.827-2.222-1.827-4.964l0,0c0-2.741,0.818-4.964,1.827-4.964h44.926      C278.551,471.831,279.369,474.053,279.369,476.795L279.369,476.795z" style="clip-path:url(#SVGID_4_);fill:#E6E6E6;"/></g><g><defs><path d="M474.944,179.441v261.955c0,4.32-3.665,7.814-8.191,7.814H45.244c-4.514,0-8.191-3.495-8.191-7.814       V179.441c0-4.32,3.677-7.815,8.191-7.815h421.509c1.165,0,2.257,0.231,3.264,0.655       C472.917,173.471,474.944,176.238,474.944,179.441z" id="SVGID_5_"/></defs><clipPath id="SVGID_6_"><use style="overflow:visible;" xlink:href="#SVGID_5_"/></clipPath><g style="clip-path:url(#SVGID_6_);"><path d="M85.261,486.829c-2.836,0-5.143-2.307-5.143-5.143v-282.06c0-2.836,2.307-5.143,5.143-5.143       h345.486c2.836,0,5.143,2.307,5.143,5.143v282.06c0,2.836-2.307,5.143-5.143,5.143H85.261z" style="fill:#F5FAF4;"/><path d="M430.748,197.34c1.26,0,2.286,1.025,2.286,2.286v282.06c0,1.26-1.025,2.286-2.286,2.286H85.261       c-1.26,0-2.286-1.025-2.286-2.286v-282.06c0-1.26,1.025-2.286,2.286-2.286L430.748,197.34 M430.748,191.626H85.261       c-4.412,0-8,3.577-8,8v282.06c0,4.423,3.588,8,8,8h345.487c4.423,0,8-3.577,8-8v-282.06       C438.748,195.203,435.17,191.626,430.748,191.626L430.748,191.626z" style="fill:#F5BA3D;"/></g></g><g><defs><path d="M474.944,179.441v261.955c0,4.32-3.665,7.814-8.191,7.814H45.244c-4.514,0-8.191-3.495-8.191-7.814       V179.441c0-4.32,3.677-7.815,8.191-7.815h421.509c1.165,0,2.257,0.231,3.264,0.655       C472.917,173.471,474.944,176.238,474.944,179.441z" id="SVGID_7_"/></defs><clipPath id="SVGID_8_"><use style="overflow:visible;" xlink:href="#SVGID_7_"/></clipPath><path d="M438.747,199.626v30.045H77.261v-30.045c0-4.423,3.588-8,8-8h345.487      C435.17,191.626,438.747,195.203,438.747,199.626z" style="clip-path:url(#SVGID_8_);fill:#F5BA3D;"/></g><g><defs><path d="M474.944,179.441v261.955c0,4.32-3.665,7.814-8.191,7.814H45.244c-4.514,0-8.191-3.495-8.191-7.814       V179.441c0-4.32,3.677-7.815,8.191-7.815h421.509c1.165,0,2.257,0.231,3.264,0.655       C472.917,173.471,474.944,176.238,474.944,179.441z" id="SVGID_9_"/></defs><clipPath id="SVGID_10_"><use style="overflow:visible;" xlink:href="#SVGID_9_"/></clipPath><g style="clip-path:url(#SVGID_10_);"><path d="M426.872,214.542c0,3.456-2.801,6.257-6.257,6.257h-7.297c-3.456,0-6.257-2.801-6.257-6.257       v-7.297c0-3.456,2.801-6.257,6.257-6.257h7.297c3.456,0,6.257,2.801,6.257,6.257V214.542z" style="fill:#D51920;"/></g></g><g><defs><path d="M474.944,179.441v261.955c0,4.32-3.665,7.814-8.191,7.814H45.244c-4.514,0-8.191-3.495-8.191-7.814       V179.441c0-4.32,3.677-7.815,8.191-7.815h421.509c1.165,0,2.257,0.231,3.264,0.655       C472.917,173.471,474.944,176.238,474.944,179.441z" id="SVGID_11_"/></defs><clipPath id="SVGID_12_"><use style="overflow:visible;" xlink:href="#SVGID_11_"/></clipPath><g style="clip-path:url(#SVGID_12_);"><path d="M393.928,214.542c0,3.456-2.801,6.257-6.257,6.257h-7.297c-3.456,0-6.257-2.801-6.257-6.257       v-7.297c0-3.456,2.801-6.257,6.257-6.257h7.297c3.456,0,6.257,2.801,6.257,6.257V214.542z" style="fill:#8DC63F;"/></g></g><g><defs><path d="M474.944,179.441v261.955c0,4.32-3.665,7.814-8.191,7.814H45.244c-4.514,0-8.191-3.495-8.191-7.814       V179.441c0-4.32,3.677-7.815,8.191-7.815h421.509c1.165,0,2.257,0.231,3.264,0.655       C472.917,173.471,474.944,176.238,474.944,179.441z" id="SVGID_13_"/></defs><clipPath id="SVGID_14_"><use style="overflow:visible;" xlink:href="#SVGID_13_"/></clipPath><g style="clip-path:url(#SVGID_14_);"><path d="M360.983,214.542c0,3.456-2.801,6.257-6.257,6.257h-7.297c-3.456,0-6.257-2.801-6.257-6.257       v-7.297c0-3.456,2.801-6.257,6.257-6.257h7.297c3.456,0,6.257,2.801,6.257,6.257V214.542z" style="fill:#8DC63F;"/></g></g><g><defs><path d="M474.944,179.441v261.955c0,4.32-3.665,7.814-8.191,7.814H45.244c-4.514,0-8.191-3.495-8.191-7.814       V179.441c0-4.32,3.677-7.815,8.191-7.815h421.509c1.165,0,2.257,0.231,3.264,0.655       C472.917,173.471,474.944,176.238,474.944,179.441z" id="SVGID_15_"/></defs><clipPath id="SVGID_16_"><use style="overflow:visible;" xlink:href="#SVGID_15_"/></clipPath><g style="opacity:0.7;clip-path:url(#SVGID_16_);adobe-blending-mode:screen;"><rect height="14.332" style="fill:#F5BA3D;adobe-blending-mode:normal;" width="65.495" x="95.754" y="203.227"/></g></g><g><defs><path d="M474.944,179.441v261.955c0,4.32-3.665,7.814-8.191,7.814H45.244c-4.514,0-8.191-3.495-8.191-7.814       V179.441c0-4.32,3.677-7.815,8.191-7.815h421.509c1.165,0,2.257,0.231,3.264,0.655       C472.917,173.471,474.944,176.238,474.944,179.441z" id="SVGID_17_"/></defs><clipPath id="SVGID_18_"><use style="overflow:visible;" xlink:href="#SVGID_17_"/></clipPath><g style="opacity:0.7;clip-path:url(#SVGID_18_);adobe-blending-mode:screen;"><rect height="14.332" style="fill:#F5BA3D;adobe-blending-mode:normal;" width="65.495" x="174.205" y="203.227"/></g></g><g><defs><path d="M474.944,179.441v261.955c0,4.32-3.665,7.814-8.191,7.814H45.244c-4.514,0-8.191-3.495-8.191-7.814       V179.441c0-4.32,3.677-7.815,8.191-7.815h421.509c1.165,0,2.257,0.231,3.264,0.655       C472.917,173.471,474.944,176.238,474.944,179.441z" id="SVGID_19_"/></defs><clipPath id="SVGID_20_"><use style="overflow:visible;" xlink:href="#SVGID_19_"/></clipPath><g style="opacity:0.7;clip-path:url(#SVGID_20_);adobe-blending-mode:screen;"><rect height="14.332" style="fill:#F5BA3D;adobe-blending-mode:normal;" width="65.495" x="253.375" y="203.227"/></g></g><g><defs><path d="M474.944,179.441v261.955c0,4.32-3.665,7.814-8.191,7.814H45.244c-4.514,0-8.191-3.495-8.191-7.814       V179.441c0-4.32,3.677-7.815,8.191-7.815h421.509c1.165,0,2.257,0.231,3.264,0.655       C472.917,173.471,474.944,176.238,474.944,179.441z" id="SVGID_21_"/></defs><clipPath id="SVGID_22_"><use style="overflow:visible;" xlink:href="#SVGID_21_"/></clipPath><g style="opacity:0.5;clip-path:url(#SVGID_22_);"><path d="M203.566,369.763c0,4.418-3.582,8-8,8h-84.973c-4.418,0-8-3.582-8-8V251.909       c0-4.418,3.582-8,8-8h84.973c4.418,0,8,3.582,8,8V369.763z" style="fill:#8DC63F;"/></g></g><g><defs><path d="M474.944,179.441v261.955c0,4.32-3.665,7.814-8.191,7.814H45.244c-4.514,0-8.191-3.495-8.191-7.814       V179.441c0-4.32,3.677-7.815,8.191-7.815h421.509c1.165,0,2.257,0.231,3.264,0.655       C472.917,173.471,474.944,176.238,474.944,179.441z" id="SVGID_23_"/></defs><clipPath id="SVGID_24_"><use style="overflow:visible;" xlink:href="#SVGID_23_"/></clipPath><g style="opacity:0.5;clip-path:url(#SVGID_24_);"><path d="M393.928,248.026c0,2.274-1.843,4.117-4.117,4.117H246.642c-2.274,0-4.117-1.843-4.117-4.117       l0,0c0-2.274,1.843-4.117,4.117-4.117h143.169C392.084,243.909,393.928,245.752,393.928,248.026L393.928,248.026z" style="fill:#8299CE;"/></g></g><g><defs><path d="M474.944,179.441v261.955c0,4.32-3.665,7.814-8.191,7.814H45.244c-4.514,0-8.191-3.495-8.191-7.814       V179.441c0-4.32,3.677-7.815,8.191-7.815h421.509c1.165,0,2.257,0.231,3.264,0.655       C472.917,173.471,474.944,176.238,474.944,179.441z" id="SVGID_25_"/></defs><clipPath id="SVGID_26_"><use style="overflow:visible;" xlink:href="#SVGID_25_"/></clipPath><g style="opacity:0.5;clip-path:url(#SVGID_26_);"><path d="M393.928,267.466c0,2.274-1.843,4.117-4.117,4.117H246.642c-2.274,0-4.117-1.843-4.117-4.117       l0,0c0-2.274,1.843-4.117,4.117-4.117h143.169C392.084,263.349,393.928,265.192,393.928,267.466L393.928,267.466z" style="fill:#8299CE;"/></g></g><g><defs><path d="M474.944,179.441v261.955c0,4.32-3.665,7.814-8.191,7.814H45.244c-4.514,0-8.191-3.495-8.191-7.814       V179.441c0-4.32,3.677-7.815,8.191-7.815h421.509c1.165,0,2.257,0.231,3.264,0.655       C472.917,173.471,474.944,176.238,474.944,179.441z" id="SVGID_27_"/></defs><clipPath id="SVGID_28_"><use style="overflow:visible;" xlink:href="#SVGID_27_"/></clipPath><g style="opacity:0.5;clip-path:url(#SVGID_28_);"><path d="M393.928,286.905c0,2.274-1.843,4.117-4.117,4.117H246.642c-2.274,0-4.117-1.843-4.117-4.117       l0,0c0-2.274,1.843-4.117,4.117-4.117h143.169C392.084,282.788,393.928,284.631,393.928,286.905L393.928,286.905z" style="fill:#8299CE;"/></g></g><g><defs><path d="M474.944,179.441v261.955c0,4.32-3.665,7.814-8.191,7.814H45.244c-4.514,0-8.191-3.495-8.191-7.814       V179.441c0-4.32,3.677-7.815,8.191-7.815h421.509c1.165,0,2.257,0.231,3.264,0.655       C472.917,173.471,474.944,176.238,474.944,179.441z" id="SVGID_29_"/></defs><clipPath id="SVGID_30_"><use style="overflow:visible;" xlink:href="#SVGID_29_"/></clipPath><g style="opacity:0.5;clip-path:url(#SVGID_30_);"><path d="M393.928,306.344c0,2.274-1.843,4.117-4.117,4.117H246.642c-2.274,0-4.117-1.843-4.117-4.117       l0,0c0-2.274,1.843-4.117,4.117-4.117h143.169C392.084,302.227,393.928,304.071,393.928,306.344L393.928,306.344z" style="fill:#8299CE;"/></g></g><g><defs><path d="M474.944,179.441v261.955c0,4.32-3.665,7.814-8.191,7.814H45.244c-4.514,0-8.191-3.495-8.191-7.814       V179.441c0-4.32,3.677-7.815,8.191-7.815h421.509c1.165,0,2.257,0.231,3.264,0.655       C472.917,173.471,474.944,176.238,474.944,179.441z" id="SVGID_31_"/></defs><clipPath id="SVGID_32_"><use style="overflow:visible;" xlink:href="#SVGID_31_"/></clipPath><g style="opacity:0.5;clip-path:url(#SVGID_32_);"><path d="M393.928,325.784c0,2.274-1.843,4.117-4.117,4.117H246.642c-2.274,0-4.117-1.843-4.117-4.117       l0,0c0-2.274,1.843-4.117,4.117-4.117h143.169C392.084,321.667,393.928,323.51,393.928,325.784L393.928,325.784z" style="fill:#8299CE;"/></g></g><g><defs><path d="M474.944,179.441v261.955c0,4.32-3.665,7.814-8.191,7.814H45.244c-4.514,0-8.191-3.495-8.191-7.814       V179.441c0-4.32,3.677-7.815,8.191-7.815h421.509c1.165,0,2.257,0.231,3.264,0.655       C472.917,173.471,474.944,176.238,474.944,179.441z" id="SVGID_33_"/></defs><clipPath id="SVGID_34_"><use style="overflow:visible;" xlink:href="#SVGID_33_"/></clipPath><g style="opacity:0.5;clip-path:url(#SVGID_34_);"><path d="M393.928,345.223c0,2.274-1.843,4.117-4.117,4.117H246.642c-2.274,0-4.117-1.843-4.117-4.117       l0,0c0-2.274,1.843-4.117,4.117-4.117h143.169C392.084,341.106,393.928,342.949,393.928,345.223L393.928,345.223z" style="fill:#8299CE;"/></g></g><g><defs><path d="M474.944,179.441v261.955c0,4.32-3.665,7.814-8.191,7.814H45.244c-4.514,0-8.191-3.495-8.191-7.814       V179.441c0-4.32,3.677-7.815,8.191-7.815h421.509c1.165,0,2.257,0.231,3.264,0.655       C472.917,173.471,474.944,176.238,474.944,179.441z" id="SVGID_35_"/></defs><clipPath id="SVGID_36_"><use style="overflow:visible;" xlink:href="#SVGID_35_"/></clipPath><g style="opacity:0.5;clip-path:url(#SVGID_36_);"><path d="M393.928,364.663c0,2.274-1.843,4.117-4.117,4.117H246.642c-2.274,0-4.117-1.843-4.117-4.117       l0,0c0-2.274,1.843-4.117,4.117-4.117h143.169C392.084,360.546,393.928,362.389,393.928,364.663L393.928,364.663z" style="fill:#8299CE;"/></g></g><g><defs><path d="M474.944,179.441v261.955c0,4.32-3.665,7.814-8.191,7.814H45.244c-4.514,0-8.191-3.495-8.191-7.814       V179.441c0-4.32,3.677-7.815,8.191-7.815h421.509c1.165,0,2.257,0.231,3.264,0.655       C472.917,173.471,474.944,176.238,474.944,179.441z" id="SVGID_37_"/></defs><clipPath id="SVGID_38_"><use style="overflow:visible;" xlink:href="#SVGID_37_"/></clipPath><g style="opacity:0.5;clip-path:url(#SVGID_38_);"><path d="M395.859,398.572c0,2.274-3.57,4.117-7.975,4.117H110.568c-4.404,0-7.975-1.843-7.975-4.117l0,0       c0-2.274,3.57-4.117,7.975-4.117h277.316C392.288,394.455,395.859,396.298,395.859,398.572L395.859,398.572z" style="fill:#8299CE;"/></g></g><g><defs><path d="M474.944,179.441v261.955c0,4.32-3.665,7.814-8.191,7.814H45.244c-4.514,0-8.191-3.495-8.191-7.814       V179.441c0-4.32,3.677-7.815,8.191-7.815h421.509c1.165,0,2.257,0.231,3.264,0.655       C472.917,173.471,474.944,176.238,474.944,179.441z" id="SVGID_39_"/></defs><clipPath id="SVGID_40_"><use style="overflow:visible;" xlink:href="#SVGID_39_"/></clipPath><g style="opacity:0.5;clip-path:url(#SVGID_40_);"><path d="M395.859,418.011c0,2.274-3.57,4.117-7.975,4.117H110.568c-4.404,0-7.975-1.843-7.975-4.117l0,0       c0-2.274,3.57-4.117,7.975-4.117h277.316C392.288,413.894,395.859,415.737,395.859,418.011L395.859,418.011z" style="fill:#8299CE;"/></g></g><g><defs><path d="M474.944,179.441v261.955c0,4.32-3.665,7.814-8.191,7.814H45.244c-4.514,0-8.191-3.495-8.191-7.814       V179.441c0-4.32,3.677-7.815,8.191-7.815h421.509c1.165,0,2.257,0.231,3.264,0.655       C472.917,173.471,474.944,176.238,474.944,179.441z" id="SVGID_41_"/></defs><clipPath id="SVGID_42_"><use style="overflow:visible;" xlink:href="#SVGID_41_"/></clipPath><g style="opacity:0.5;clip-path:url(#SVGID_42_);"><path d="M395.859,437.451c0,2.274-3.57,4.117-7.975,4.117H110.568c-4.404,0-7.975-1.843-7.975-4.117l0,0       c0-2.274,3.57-4.117,7.975-4.117h277.316C392.288,433.334,395.859,435.177,395.859,437.451L395.859,437.451z" style="fill:#8299CE;"/></g></g><g><defs><path d="M474.944,179.441v261.955c0,4.32-3.665,7.814-8.191,7.814H45.244c-4.514,0-8.191-3.495-8.191-7.814       V179.441c0-4.32,3.677-7.815,8.191-7.815h421.509c1.165,0,2.257,0.231,3.264,0.655       C472.917,173.471,474.944,176.238,474.944,179.441z" id="SVGID_43_"/></defs><clipPath id="SVGID_44_"><use style="overflow:visible;" xlink:href="#SVGID_43_"/></clipPath><g style="opacity:0.5;clip-path:url(#SVGID_44_);"><path d="M395.859,456.89c0,2.274-3.57,4.117-7.975,4.117H110.568c-4.404,0-7.975-1.843-7.975-4.117l0,0       c0-2.274,3.57-4.117,7.975-4.117h277.316C392.288,452.773,395.859,454.616,395.859,456.89L395.859,456.89z" style="fill:#8299CE;"/></g></g><g><defs><path d="M474.944,179.441v261.955c0,4.32-3.665,7.814-8.191,7.814H45.244c-4.514,0-8.191-3.495-8.191-7.814       V179.441c0-4.32,3.677-7.815,8.191-7.815h421.509c1.165,0,2.257,0.231,3.264,0.655       C472.917,173.471,474.944,176.238,474.944,179.441z" id="SVGID_45_"/></defs><clipPath id="SVGID_46_"><use style="overflow:visible;" xlink:href="#SVGID_45_"/></clipPath><g style="opacity:0.5;clip-path:url(#SVGID_46_);"><rect height="254.118" style="fill:#F5BA3D;" width="18.682" x="413.647" y="229.671"/></g></g><g><defs><path d="M474.944,179.441v261.955c0,4.32-3.665,7.814-8.191,7.814H45.244c-4.514,0-8.191-3.495-8.191-7.814       V179.441c0-4.32,3.677-7.815,8.191-7.815h421.509c1.165,0,2.257,0.231,3.264,0.655       C472.917,173.471,474.944,176.238,474.944,179.441z" id="SVGID_47_"/></defs><clipPath id="SVGID_48_"><use style="overflow:visible;" xlink:href="#SVGID_47_"/></clipPath><path d="      M474.944,179.441v1.541L206.715,449.21h-57.019l277.572-277.584h39.485c1.165,0,2.257,0.231,3.264,0.655      C472.917,173.471,474.944,176.238,474.944,179.441z" style="opacity:0.2;clip-path:url(#SVGID_48_);fill:#ABC8E9;adobe-blending-mode:screen;enable-background:new    ;"/></g><g><defs><path d="M474.944,179.441v261.955c0,4.32-3.665,7.814-8.191,7.814H45.244c-4.514,0-8.191-3.495-8.191-7.814       V179.441c0-4.32,3.677-7.815,8.191-7.815h421.509c1.165,0,2.257,0.231,3.264,0.655       C472.917,173.471,474.944,176.238,474.944,179.441z" id="SVGID_49_"/></defs><clipPath id="SVGID_50_"><use style="overflow:visible;" xlink:href="#SVGID_49_"/></clipPath><polygon points="      474.944,210.25 474.944,238.766 264.511,449.21 235.995,449.21     " style="opacity:0.2;clip-path:url(#SVGID_50_);fill:#ABC8E9;adobe-blending-mode:screen;enable-background:new    ;"/></g></g></g></g></svg>