<?xml version="1.0" ?><svg id="Layer_3" style="enable-background:new 0 0 64 64;" version="1.1" viewBox="0 0 64 64" xml:space="preserve" xmlns="http://www.w3.org/2000/svg" xmlns:xlink="http://www.w3.org/1999/xlink"><g><g><path d="M60,45H4c-1.105,0-2-0.895-2-2v-8h60v8C62,44.105,61.105,45,60,45z" style="fill:#CCCCCC;"/></g><g><path d="M58,43v-8H2v8c0,1.105,0.895,2,2,2h52C57.105,45,58,44.105,58,43z" style="fill:#E6E6E6;"/></g><g><path d="M55,44h4c1.657,0,3,1.343,3,3v7c0,2.209-1.791,4-4,4h-2c-2.209,0-4-1.791-4-4v-7    C52,45.343,53.343,44,55,44z" style="fill:#666666;"/></g><g><path d="M52,47v7c0,2.038,1.53,3.701,3.5,3.95C57.47,57.701,59,56.038,59,54v-7c0-1.657-1.343-3-3-3h-1    C53.343,44,52,45.343,52,47z" style="fill:#808080;"/></g><g><path d="M52,50h10v-3c0-1.657-1.343-3-3-3h-4c-1.657,0-3,1.343-3,3V50z" style="fill:#333333;"/></g><g><path d="M56,44h-1c-1.657,0-3,1.343-3,3v3h7v-3C59,45.343,57.657,44,56,44z" style="fill:#4D4D4D;"/></g><g><rect height="33" style="fill:#00395E;" width="60" x="2" y="2"/></g><g><rect height="33" style="fill:#00558D;" width="56" x="2" y="2"/></g><g><rect height="25" style="fill:#5CA4D4;" width="48" x="8" y="6"/></g><g><rect height="25" style="fill:#85BBDF;" width="44" x="8" y="6"/></g><g><rect height="17" style="fill:#B2151B;" width="20" x="12" y="10"/></g><g><rect height="17" style="fill:#ED1C24;" width="16" x="12" y="10"/></g><g><polygon points="18,14 18,23 26,19   " style="fill:#851014;"/></g><g><rect height="4" style="fill:#F7931E;" width="16" x="36" y="10"/></g><g><rect height="4" style="fill:#FBB03B;" width="13" x="36" y="10"/></g><g><rect height="11" style="fill:#CCCCCC;" width="10" x="27" y="45"/></g><g><rect height="11" style="fill:#E6E6E6;" width="7" x="27" y="45"/></g><g><polygon points="27,56 22,56 22,62 42,62 42,56 37,56   " style="fill:#B3B3B3;"/></g><g><polygon points="37,56 34,56 27,56 24,56 22,56 22,62 39,62 39,56   " style="fill:#CCCCCC;"/></g><g><rect height="4" style="fill:#F7931E;" width="16" x="36" y="23"/></g><g><rect height="4" style="fill:#FBB03B;" width="13" x="36" y="23"/></g><g><g><path d="M55,63h-5c-1.654,0-3-1.346-3-3V45h2v15c0,0.551,0.448,1,1,1h5c0.552,0,1-0.449,1-1v-2h2v2     C58,61.654,56.654,63,55,63z" style="fill:#333333;"/></g></g><g><g><rect height="3" style="fill:#333333;" width="2" x="56" y="44"/></g></g></g></svg>