<?xml version="1.0" ?><svg enable-background="new 0 0 64 64" height="64px" id="Layer_1" version="1.1" viewBox="0 0 64 64" width="64px" xml:space="preserve" xmlns="http://www.w3.org/2000/svg" xmlns:xlink="http://www.w3.org/1999/xlink"><circle cx="32" cy="32" fill="#4F5D73" r="32"/><path d="M23.804,55.596c1.39,0.616,2.995,0.035,3.585-1.297l4.843-10.935l7.66,3.393  c0.194,0.086,0.401,0.128,0.607,0.128c0.286,0,0.571-0.082,0.818-0.243C41.744,46.365,42,45.892,42,45.385V14.616  c0-0.595-0.352-1.133-0.896-1.373c-0.544-0.24-1.179-0.134-1.618,0.267L16.851,34.254c-0.373,0.342-0.548,0.849-0.467,1.349  c0.082,0.499,0.41,0.924,0.873,1.129l7.739,3.428l-4.843,10.935c-0.59,1.332,0.059,2.911,1.448,3.526L23.804,55.596" fill="#231F20" opacity="0.2"/><path d="M41.457,11.243c-0.544-0.24-1.179-0.134-1.618,0.267L17.205,32.254c-0.373,0.342-0.548,0.849-0.467,1.349  c0.082,0.499,0.41,0.924,0.873,1.129l22.635,10.025C40.44,44.842,42,45,42,43.385V12.616C42,12.021,42.002,11.482,41.457,11.243z" fill="#E0E0D1"/><path d="M28.497,31.054l-7.99,18.04c-0.59,1.332,0.059,2.911,1.448,3.526l2.202,0.975  c1.39,0.616,2.995,0.035,3.585-1.297l7.775-17.554C33.137,33.588,30.781,32.39,28.497,31.054z" fill="#E0E0D1"/></svg>