<?xml version="1.0" ?><svg id="Layer_1" style="enable-background:new 0 0 512 512;" version="1.1" viewBox="0 0 512 512" xml:space="preserve" xmlns="http://www.w3.org/2000/svg" xmlns:xlink="http://www.w3.org/1999/xlink"><style type="text/css">
	.st0{fill:#FFDBD4;}
	.st1{fill:#BF6149;}
	.st2{fill:#A84835;}
	.st3{fill:#FFFFFF;}
</style><g id="XMLID_7_"><g id="XMLID_32_"><polygon class="st0" id="XMLID_36_" points="330.7,6 87.9,6 87.9,506 449.2,506 449.2,122.8   "/><polygon class="st1" id="XMLID_35_" points="330.7,6 449.2,122.8 330.7,122.8   "/><rect class="st1" height="156.1" id="XMLID_34_" width="329" x="62.8" y="298.8"/><polygon class="st2" id="XMLID_33_" points="62.8,454.9 87.9,476.1 87.9,454.9   "/></g><g id="XMLID_804_"><path class="st3" d="M168.3,406.9h-17v-78.1h17V406.9z" id="XMLID_686_"/><path class="st3" d="M183.6,379.4c0-8.1,2.3-14.8,6.9-19.9c4.6-5.1,11-7.7,19.3-7.7c8.3,0,14.7,2.6,19.3,7.7    c4.6,5.1,6.9,11.8,6.9,19.9v1.1c0,8.2-2.3,14.8-6.9,19.9c-4.6,5.1-11,7.7-19.2,7.7c-8.3,0-14.8-2.6-19.4-7.7    c-4.6-5.1-6.9-11.8-6.9-19.9V379.4z M200.5,380.4c0,4.5,0.7,8.1,2.1,10.7c1.4,2.6,3.8,3.9,7.2,3.9c3.3,0,5.7-1.3,7.1-3.9    c1.4-2.6,2.2-6.2,2.2-10.7v-1.1c0-4.4-0.7-7.9-2.2-10.6c-1.4-2.7-3.8-4-7.2-4c-3.3,0-5.7,1.3-7.1,4c-1.4,2.7-2.1,6.2-2.1,10.6    V380.4z" id="XMLID_688_"/><path class="st3" d="M248.4,380c0-8.4,1.8-15.3,5.5-20.4c3.7-5.2,8.9-7.8,15.6-7.8c2.8,0,5.3,0.7,7.5,2    c2.2,1.4,4,3.3,5.6,5.7l1.1-6.8h14.9v53.6c0,7.1-2.4,12.7-7.3,16.6c-4.9,3.9-11.6,5.9-20.2,5.9c-2.8,0-5.7-0.4-8.8-1.2    c-3.1-0.8-6-1.8-8.8-3.1l2.9-12.5c2.4,1.1,4.8,1.9,7,2.4c2.2,0.5,4.8,0.8,7.6,0.8c3.6,0,6.3-0.7,8-2.2c1.8-1.4,2.6-3.7,2.6-6.8    V402c-1.5,2-3.3,3.5-5.3,4.5c-2,1-4.3,1.5-6.9,1.5c-6.7,0-11.9-2.5-15.5-7.4s-5.5-11.5-5.5-19.6V380z M265.3,381    c0,4.4,0.6,7.8,1.9,10.3c1.3,2.5,3.5,3.7,6.5,3.7c1.8,0,3.4-0.3,4.7-0.9c1.3-0.6,2.4-1.4,3.2-2.6v-22.8c-0.8-1.3-1.9-2.3-3.2-3    c-1.3-0.7-2.9-1-4.7-1c-3,0-5.2,1.4-6.5,4.2c-1.4,2.8-2,6.5-2,11V381z" id="XMLID_691_"/></g></g></svg>