<?xml version="1.0" ?><svg version="1.1" viewBox="0 0 152 152" xmlns="http://www.w3.org/2000/svg" xmlns:xlink="http://www.w3.org/1999/xlink"><defs><linearGradient id="def0" x1="0.500004" x2="0.500004" y1="1" y2="4.49589E-06"><stop offset="0" stop-color="#B8DAFF"/><stop offset="0.00561806" stop-color="#B8DAFF"/><stop offset="1" stop-color="#F6F9FF"/></linearGradient></defs><g><path d="M152,152L0,152 0,0 152,0 152,152z" fill="#77A1C9"/><path d="M1.33333,1.33333L150.667,1.33333 150.667,150.667 1.33333,150.667 1.33333,1.33333z" fill="url(#def0)"/><path d="M82.6667,18.6667L10.6667,18.6667 10.6667,16 82.6667,16 82.6667,18.6667z" fill="#0066CC"/><path d="M54.6667,30.6667L30.6667,30.6667 30.6667,28 54.6667,28 54.6667,30.6667z" fill="#0066CC"/><path d="M72,42.6667L53.3333,42.6667 53.3333,40 72,40 72,42.6667z" fill="#0066CC"/><path d="M118.667,54.6667L46.6667,54.6667 46.6667,52 118.667,52 118.667,54.6667z" fill="#0066CC"/><path d="M50.6667,66.6667L32,66.6667 32,64 50.6667,64 50.6667,66.6667z" fill="#0066CC"/><path d="M81.3333,78.6667L18.6667,78.6667 18.6667,76 81.3333,76 81.3333,78.6667z" fill="#0066CC"/><path d="M38.6667,90.6667L18.6667,90.6667 18.6667,88 38.6667,88 38.6667,90.6667z" fill="#0066CC"/><path d="M65.3333,102.667L29.3333,102.667 29.3333,100 65.3333,100 65.3333,102.667z" fill="#0066CC"/><path d="M90.6667,114.667L49.3333,114.667 49.3333,112 90.6667,112 90.6667,114.667z" fill="#0066CC"/><path d="M101.333,126.667L41.3333,126.667 41.3333,124 101.333,124 101.333,126.667z" fill="#0066CC"/><path d="M144,138.667L82.6667,138.667 82.6667,136 144,136 144,138.667z" fill="#0066CC"/></g></svg>