<?xml version="1.0" ?><svg enable-background="new 0 0 512 512" id="Layer_1" version="1.1" viewBox="0 0 512 512" xml:space="preserve" xmlns="http://www.w3.org/2000/svg" xmlns:xlink="http://www.w3.org/1999/xlink"><g><g><linearGradient gradientUnits="userSpaceOnUse" id="SVGID_1_" x1="-0.0000027" x2="512" y1="256" y2="256"><stop offset="0" style="stop-color:#8DC63F"/><stop offset="1" style="stop-color:#76B83F"/></linearGradient><circle cx="256" cy="256" fill="url(#SVGID_1_)" r="256"/><linearGradient gradientUnits="userSpaceOnUse" id="SVGID_2_" x1="42.6666641" x2="469.3333435" y1="256.0005188" y2="256.0005188"><stop offset="0" style="stop-color:#76B83F"/><stop offset="1" style="stop-color:#8DC63F"/></linearGradient><path d="M256,469.3338623c-117.6315002,0-213.3333435-95.7023926-213.3333435-213.3333435    c0-117.6314545,95.7018356-213.333313,213.3333435-213.333313c117.6357117,0,213.3333435,95.7018661,213.3333435,213.333313    C469.3333435,373.6314697,373.6357117,469.3338623,256,469.3338623z" fill="url(#SVGID_2_)"/></g><g><polygon opacity="0.3" points="309.9066467,149 309.9066467,201.7082672 362.6148987,201.7082672   "/><polygon opacity="0.3" points="299.9066467,211.7082672 299.9066467,144 160.3850403,144 160.3850403,303.0335999     244.5653381,303.0335999 211.9354401,270.4042664 219.0058441,263.3344116 263.7055664,308.0335999 219.0058441,352.7306824     211.9354401,345.6607971 244.5647736,313.0335999 160.3850403,313.0335999 160.3850403,384 367.6148987,384     367.6148987,211.7082672   "/></g><g><polygon fill="#FFFFFF" points="301.9066467,141 301.9066467,193.7082672 354.6148987,193.7082672   "/><polygon fill="#FFFFFF" points="291.9066467,203.7082672 291.9066467,136 152.3850403,136 152.3850403,295.0335999     236.5653381,295.0335999 203.9354401,262.4042664 211.0058441,255.3343964 255.7055664,300.0335999 211.0058441,344.7306824     203.9354401,337.6607971 236.5647736,305.0335999 152.3850403,305.0335999 152.3850403,376 359.6148987,376     359.6148987,203.7082672   "/></g></g></svg>