<?xml version="1.0" ?><svg enable-background="new 0 0 512 512" id="Layer_1" version="1.1" viewBox="0 0 512 512" xml:space="preserve" xmlns="http://www.w3.org/2000/svg" xmlns:xlink="http://www.w3.org/1999/xlink"><g><g><linearGradient gradientUnits="userSpaceOnUse" id="SVGID_1_" x1="-0.0000027" x2="512" y1="256" y2="256"><stop offset="0" style="stop-color:#8DC63F"/><stop offset="1" style="stop-color:#76B83F"/></linearGradient><circle cx="256" cy="256" fill="url(#SVGID_1_)" r="256"/><linearGradient gradientUnits="userSpaceOnUse" id="SVGID_2_" x1="42.6666641" x2="469.3333435" y1="256.0005188" y2="256.0005188"><stop offset="0" style="stop-color:#76B83F"/><stop offset="1" style="stop-color:#8DC63F"/></linearGradient><path d="M256,469.3338623c-117.631012,0-213.3333435-95.7023926-213.3333435-213.3333435    c0-117.6314545,95.7023239-213.333313,213.3333435-213.333313c117.6362,0,213.3333435,95.7018661,213.3333435,213.333313    C469.3333435,373.6314697,373.6362,469.3338623,256,469.3338623z" fill="url(#SVGID_2_)"/></g><g><polygon opacity="0.3" points="307.35672,146.7978668 307.35672,204.9423981 365.4564514,204.9423981   "/><path d="M297.7567139,214.5424042V144H159.7440033v240H368.256012V214.5424042H297.7567139z     M304.0516663,344.2384033l-6.7876587-6.7877502l32.3913879-32.3909302h-97.8661346v-9.5999756h97.8655853l-32.3908386-32.3877563    l6.7876587-6.7877197l43.9786682,43.9754639L304.0516663,344.2384033z" opacity="0.3"/></g><g><polygon fill="#FFFFFF" points="299.35672,138.7978668 299.35672,196.9423981 357.4564514,196.9423981   "/><path d="M289.7567139,206.5424042V136H151.7440033v240H360.256012V206.5424042H289.7567139z     M296.0516663,336.2384033l-6.7876587-6.7877502l32.3913879-32.3909302h-97.8661346v-9.5999756h97.8655853l-32.3908386-32.3877411    l6.7876587-6.787735l43.9786682,43.9754639L296.0516663,336.2384033z" fill="#FFFFFF"/></g></g></svg>